<?xml version="1.0" encoding="utf-8" ?>
<svg baseProfile="tiny" height="100%" version="1.2" width="100%" xmlns="http://www.w3.org/2000/svg" xmlns:ev="http://www.w3.org/2001/xml-events" xmlns:xlink="http://www.w3.org/1999/xlink"><defs /><path d="M 240,285 240,359 242,361 243,361 245,363 246,363 248,365 249,365 250,366 251,365 252,365 256,361 257,361 260,358 260,298 259,298 257,296 256,296 254,294 253,294 251,292 250,292 248,290 247,290 245,288 244,288 242,286 241,286 Z" fill="black" /><path d="M 248,134 244,138 243,138 239,142 239,236 238,237 237,236 236,236 235,235 234,235 232,233 231,233 229,231 228,231 226,229 225,229 224,228 223,228 221,226 220,226 218,224 217,224 215,222 214,222 212,220 211,220 210,219 209,219 207,217 206,217 204,215 203,215 201,213 200,213 199,212 198,212 196,210 195,210 193,208 192,208 190,206 189,206 188,205 187,205 185,203 184,203 182,201 181,201 179,199 178,199 176,197 175,197 174,196 173,196 171,194 170,194 168,192 165,192 164,193 163,193 161,195 160,195 159,196 158,196 156,198 156,316 157,316 159,318 160,318 163,321 164,321 167,324 168,324 171,327 172,327 175,330 176,330 176,224 177,223 178,224 179,224 181,226 182,226 183,227 184,227 186,229 187,229 189,231 190,231 192,233 193,233 195,235 196,235 197,236 198,236 200,238 201,238 203,240 204,240 206,242 207,242 209,244 210,244 212,246 213,246 214,247 215,247 217,249 218,249 220,251 221,251 223,253 224,253 226,255 227,255 229,257 230,257 231,258 232,258 234,260 235,260 237,262 238,262 240,264 241,264 243,266 244,266 246,268 247,268 248,269 249,269 251,271 252,271 254,273 255,273 257,275 258,275 259,276 260,276 260,246 261,245 322,245 323,246 323,329 325,327 326,327 328,325 329,325 331,323 332,323 334,321 335,321 337,319 338,319 340,317 341,317 343,315 344,315 344,198 343,198 341,196 340,196 338,194 337,194 335,192 334,192 333,191 332,191 330,189 329,189 327,187 326,187 325,186 323,186 323,225 322,226 261,226 260,225 260,141 259,141 257,139 256,139 253,136 252,136 250,134 Z" fill="black" /></svg>